{"buffers":[{"uri":"Current One.bin","byteLength":5731044}],"asset":{"version":"2.0","generator":"gltfpack 0.16"},"bufferViews":[{"buffer":0,"byteOffset":0,"byteLength":2265912,"byteStride":12,"target":34962},{"buffer":0,"byteOffset":2265912,"byteLength":2265912,"byteStride":12,"target":34962},{"buffer":0,"byteOffset":4531824,"byteLength":1199220,"target":34963}],"accessors":[{"bufferView":0,"byteOffset":0,"componentType":5126,"count":6976,"type":"VEC3","min":[-0.307259023,-0.0357808545,0.100928359],"max":[-0.0668590143,0.0945991427,0.116228357]},{"bufferView":1,"byteOffset":0,"componentType":5126,"count":6976,"type":"VEC3"},{"bufferView":2,"byteOffset":0,"componentType":5123,"count":22914,"type":"SCALAR"},{"bufferView":0,"byteOffset":83712,"componentType":5126,"count":2629,"type":"VEC3","min":[-0.139518008,-0.0619908571,0.0757510737],"max":[-0.116149656,-0.0265908558,0.099138245]},{"bufferView":1,"byteOffset":83712,"componentType":5126,"count":2629,"type":"VEC3"},{"bufferView":2,"byteOffset":45828,"componentType":5123,"count":10248,"type":"SCALAR"},{"bufferView":0,"byteOffset":115260,"componentType":5126,"count":2629,"type":"VEC3","min":[-0.209956154,-0.0619908571,0.0757475272],"max":[-0.186561882,-0.0265908558,0.0991417989]},{"bufferView":1,"byteOffset":115260,"componentType":5126,"count":2629,"type":"VEC3"},{"bufferView":2,"byteOffset":66324,"componentType":5123,"count":10248,"type":"SCALAR"},{"bufferView":0,"byteOffset":146808,"componentType":5126,"count":2629,"type":"VEC3","min":[-0.239948913,-0.0619908571,0.0757542774],"max":[-0.216569111,-0.0265908558,0.0991350412]},{"bufferView":1,"byteOffset":146808,"componentType":5126,"count":2629,"type":"VEC3"},{"bufferView":2,"byteOffset":86820,"componentType":5123,"count":10248,"type":"SCALAR"},{"bufferView":0,"byteOffset":178356,"componentType":5126,"count":2629,"type":"VEC3","min":[-0.114502802,0.0854091421,0.0757508725],"max":[-0.0911152288,0.120809145,0.0991384462]},{"bufferView":1,"byteOffset":178356,"componentType":5126,"count":2629,"type":"VEC3"},{"bufferView":2,"byteOffset":107316,"componentType":5123,"count":10248,"type":"SCALAR"},{"bufferView":0,"byteOffset":209904,"componentType":5126,"count":2629,"type":"VEC3","min":[-0.109522775,-0.0619908571,0.0757557154],"max":[-0.0861448869,-0.0265908558,0.0991336033]},{"bufferView":1,"byteOffset":209904,"componentType":5126,"count":2629,"type":"VEC3"},{"bufferView":2,"byteOffset":127812,"componentType":5123,"count":10248,"type":"SCALAR"},{"bufferView":0,"byteOffset":241452,"componentType":5126,"count":11701,"type":"VEC3","min":[-0.307259023,-0.0357808545,0.061228361],"max":[-0.0668590143,0.0945991427,0.111228362]},{"bufferView":1,"byteOffset":241452,"componentType":5126,"count":11701,"type":"VEC3"},{"bufferView":2,"byteOffset":148308,"componentType":5123,"count":43008,"type":"SCALAR"},{"bufferView":0,"byteOffset":381864,"componentType":5126,"count":438,"type":"VEC3","min":[-0.314943999,0.0320846289,0.0987273604],"max":[-0.300944,0.0373546295,0.10955736]},{"bufferView":1,"byteOffset":381864,"componentType":5126,"count":438,"type":"VEC3"},{"bufferView":2,"byteOffset":234324,"componentType":5123,"count":996,"type":"SCALAR"},{"bufferView":0,"byteOffset":387120,"componentType":5126,"count":2629,"type":"VEC3","min":[-0.144486904,0.0854091421,0.0757667646],"max":[-0.121131122,0.120809145,0.0991225541]},{"bufferView":1,"byteOffset":387120,"componentType":5126,"count":2629,"type":"VEC3"},{"bufferView":2,"byteOffset":236316,"componentType":5123,"count":10248,"type":"SCALAR"},{"bufferView":0,"byteOffset":418668,"componentType":5126,"count":438,"type":"VEC3","min":[-0.314943999,0.0733846277,0.0987273604],"max":[-0.300944,0.078654632,0.10955736]},{"bufferView":1,"byteOffset":418668,"componentType":5126,"count":438,"type":"VEC3"},{"bufferView":2,"byteOffset":256812,"componentType":5123,"count":996,"type":"SCALAR"},{"bufferView":0,"byteOffset":423924,"componentType":5126,"count":5155,"type":"VEC3","min":[-0.162810311,-0.0328858569,0.0987873599],"max":[-0.147570312,-0.000825855706,0.10228736]},{"bufferView":1,"byteOffset":423924,"componentType":5126,"count":5155,"type":"VEC3"},{"bufferView":2,"byteOffset":258804,"componentType":5123,"count":14748,"type":"SCALAR"},{"bufferView":0,"byteOffset":485784,"componentType":5126,"count":14502,"type":"VEC3","min":[-0.300950348,-0.0294821821,0.049228359],"max":[-0.293967694,-0.0224995296,0.0652283579]},{"bufferView":1,"byteOffset":485784,"componentType":5126,"count":14502,"type":"VEC3"},{"bufferView":2,"byteOffset":288300,"componentType":5123,"count":43212,"type":"SCALAR"},{"bufferView":0,"byteOffset":659808,"componentType":5126,"count":14502,"type":"VEC3","min":[-0.300651371,0.0810167715,0.0998283625],"max":[-0.293666631,0.088001512,0.115828358]},{"bufferView":1,"byteOffset":659808,"componentType":5126,"count":14502,"type":"VEC3"},{"bufferView":2,"byteOffset":374724,"componentType":5123,"count":43212,"type":"SCALAR"},{"bufferView":0,"byteOffset":833832,"componentType":5126,"count":4199,"type":"VEC3","min":[-0.340891212,0.0110639902,0.100802206],"max":[-0.304831207,0.017554298,0.107292518]},{"bufferView":1,"byteOffset":833832,"componentType":5126,"count":4199,"type":"VEC3"},{"bufferView":2,"byteOffset":461148,"componentType":5123,"count":20814,"type":"SCALAR"},{"bufferView":0,"byteOffset":884220,"componentType":5126,"count":14502,"type":"VEC3","min":[-0.0799226835,-0.0294752922,0.049228359],"max":[-0.0729538053,-0.0225064196,0.0652283579]},{"bufferView":1,"byteOffset":884220,"componentType":5126,"count":14502,"type":"VEC3"},{"bufferView":2,"byteOffset":502776,"componentType":5123,"count":43212,"type":"SCALAR"},{"bufferView":0,"byteOffset":1058244,"componentType":5126,"count":968,"type":"VEC3","min":[-0.272301883,-0.0434758551,0.0987273604],"max":[-0.262451887,-0.0294758566,0.10955736]},{"bufferView":1,"byteOffset":1058244,"componentType":5126,"count":968,"type":"VEC3"},{"bufferView":2,"byteOffset":589200,"componentType":5123,"count":2286,"type":"SCALAR"},{"bufferView":0,"byteOffset":1069860,"componentType":5126,"count":688,"type":"VEC3","min":[-0.248140305,-0.0187808555,0.101987362],"max":[-0.242140308,-0.0127808554,0.10228736]},{"bufferView":1,"byteOffset":1069860,"componentType":5126,"count":688,"type":"VEC3"},{"bufferView":2,"byteOffset":593772,"componentType":5123,"count":2112,"type":"SCALAR"},{"bufferView":0,"byteOffset":1078116,"componentType":5126,"count":130,"type":"VEC3","min":[-0.242140308,-0.0183808561,0.0987873599],"max":[-0.241140306,-0.0176808555,0.100187361]},{"bufferView":1,"byteOffset":1078116,"componentType":5126,"count":130,"type":"VEC3"},{"bufferView":2,"byteOffset":597996,"componentType":5123,"count":360,"type":"SCALAR"},{"bufferView":0,"byteOffset":1079676,"componentType":5126,"count":2204,"type":"VEC3","min":[-0.248140305,-0.0187808555,0.0987873599],"max":[-0.242140308,-0.0127808554,0.102687359]},{"bufferView":1,"byteOffset":1079676,"componentType":5126,"count":2204,"type":"VEC3"},{"bufferView":2,"byteOffset":598716,"componentType":5123,"count":9792,"type":"SCALAR"},{"bufferView":0,"byteOffset":1106124,"componentType":5126,"count":130,"type":"VEC3","min":[-0.249140307,-0.0138808554,0.0987873599],"max":[-0.248140305,-0.0131808557,0.100187361]},{"bufferView":1,"byteOffset":1106124,"componentType":5126,"count":130,"type":"VEC3"},{"bufferView":2,"byteOffset":618300,"componentType":5123,"count":360,"type":"SCALAR"},{"bufferView":0,"byteOffset":1107684,"componentType":5126,"count":768,"type":"VEC3","min":[-0.246890306,-0.0175308548,0.101987362],"max":[-0.243390307,-0.0140308561,0.106087364]},{"bufferView":1,"byteOffset":1107684,"componentType":5126,"count":768,"type":"VEC3"},{"bufferView":2,"byteOffset":619020,"componentType":5123,"count":3708,"type":"SCALAR"},{"bufferView":0,"byteOffset":1116900,"componentType":5126,"count":130,"type":"VEC3","min":[-0.242140308,-0.0138808554,0.0987873599],"max":[-0.241140306,-0.0131808557,0.100187361]},{"bufferView":1,"byteOffset":1116900,"componentType":5126,"count":130,"type":"VEC3"},{"bufferView":2,"byteOffset":626436,"componentType":5123,"count":360,"type":"SCALAR"},{"bufferView":0,"byteOffset":1118460,"componentType":5126,"count":130,"type":"VEC3","min":[-0.249140307,-0.0183808561,0.0987873599],"max":[-0.248140305,-0.0176808555,0.100187361]},{"bufferView":1,"byteOffset":1118460,"componentType":5126,"count":130,"type":"VEC3"},{"bufferView":2,"byteOffset":627156,"componentType":5123,"count":360,"type":"SCALAR"},{"bufferView":0,"byteOffset":1120020,"componentType":5126,"count":14502,"type":"VEC3","min":[-0.0804456547,0.0810225084,0.0998283625],"max":[-0.0734723806,0.0879957825,0.115828358]},{"bufferView":1,"byteOffset":1120020,"componentType":5126,"count":14502,"type":"VEC3"},{"bufferView":2,"byteOffset":627876,"componentType":5123,"count":43212,"type":"SCALAR"},{"bufferView":0,"byteOffset":1294044,"componentType":5126,"count":438,"type":"VEC3","min":[-0.262654483,0.088294141,0.0987273604],"max":[-0.257384509,0.102294147,0.10955736]},{"bufferView":1,"byteOffset":1294044,"componentType":5126,"count":438,"type":"VEC3"},{"bufferView":2,"byteOffset":714300,"componentType":5123,"count":996,"type":"SCALAR"},{"bufferView":0,"byteOffset":1299300,"componentType":5126,"count":14502,"type":"VEC3","min":[-0.0804513842,-0.0291832257,0.0998283625],"max":[-0.0734666437,-0.0221984852,0.115828358]},{"bufferView":1,"byteOffset":1299300,"componentType":5126,"count":14502,"type":"VEC3"},{"bufferView":2,"byteOffset":716292,"componentType":5123,"count":43212,"type":"SCALAR"},{"bufferView":0,"byteOffset":1473324,"componentType":5126,"count":14502,"type":"VEC3","min":[-0.0672590137,0.0260274354,0.0654466972],"max":[-0.0512590148,0.0329908542,0.0724101141]},{"bufferView":1,"byteOffset":1473324,"componentType":5126,"count":14502,"type":"VEC3"},{"bufferView":2,"byteOffset":802716,"componentType":5123,"count":43212,"type":"SCALAR"},{"bufferView":0,"byteOffset":1647348,"componentType":5126,"count":968,"type":"VEC3","min":[-0.182001889,-0.0434758551,0.0987273604],"max":[-0.172151893,-0.0294758566,0.10955736]},{"bufferView":1,"byteOffset":1647348,"componentType":5126,"count":968,"type":"VEC3"},{"bufferView":2,"byteOffset":889140,"componentType":5123,"count":2286,"type":"SCALAR"},{"bufferView":0,"byteOffset":1658964,"componentType":5126,"count":2335,"type":"VEC3","min":[-0.312459022,-0.0409908555,0.0572283603],"max":[-0.0508590154,0.0999991447,0.0742183626]},{"bufferView":1,"byteOffset":1658964,"componentType":5126,"count":2335,"type":"VEC3"},{"bufferView":2,"byteOffset":893712,"componentType":5123,"count":8688,"type":"SCALAR"},{"bufferView":0,"byteOffset":1686984,"componentType":5126,"count":968,"type":"VEC3","min":[-0.250299484,0.088294141,0.0987273604],"max":[-0.240449488,0.102294147,0.10955736]},{"bufferView":1,"byteOffset":1686984,"componentType":5126,"count":968,"type":"VEC3"},{"bufferView":2,"byteOffset":911088,"componentType":5123,"count":2286,"type":"SCALAR"},{"bufferView":0,"byteOffset":1698600,"componentType":5126,"count":14502,"type":"VEC3","min":[-0.300945342,0.0815228075,0.049228359],"max":[-0.293972671,0.088495478,0.0652283579]},{"bufferView":1,"byteOffset":1698600,"componentType":5126,"count":14502,"type":"VEC3"},{"bufferView":2,"byteOffset":915660,"componentType":5123,"count":43212,"type":"SCALAR"},{"bufferView":0,"byteOffset":1872624,"componentType":5126,"count":1694,"type":"VEC3","min":[-0.314943999,0.0444496311,0.0987273604],"max":[-0.300944,0.0662996322,0.10955736]},{"bufferView":1,"byteOffset":1872624,"componentType":5126,"count":1694,"type":"VEC3"},{"bufferView":2,"byteOffset":1002084,"componentType":5123,"count":3780,"type":"SCALAR"},{"bufferView":0,"byteOffset":1892952,"componentType":5126,"count":2076,"type":"VEC3","min":[-0.248990312,-0.0187808555,0.0953873619],"max":[-0.241290316,-0.0127808554,0.108387358]},{"bufferView":1,"byteOffset":1892952,"componentType":5126,"count":2076,"type":"VEC3"},{"bufferView":2,"byteOffset":1009644,"componentType":5123,"count":8364,"type":"SCALAR"},{"bufferView":0,"byteOffset":1917864,"componentType":5126,"count":14502,"type":"VEC3","min":[-0.0799368545,0.0815132782,0.049228359],"max":[-0.072945118,0.0885050073,0.0652283579]},{"bufferView":1,"byteOffset":1917864,"componentType":5126,"count":14502,"type":"VEC3"},{"bufferView":2,"byteOffset":1026372,"componentType":5123,"count":43212,"type":"SCALAR"},{"bufferView":0,"byteOffset":2091888,"componentType":5126,"count":14502,"type":"VEC3","min":[-0.300651371,-0.0291832257,0.0998283625],"max":[-0.293666631,-0.0221984852,0.115828358]},{"bufferView":1,"byteOffset":2091888,"componentType":5126,"count":14502,"type":"VEC3"},{"bufferView":2,"byteOffset":1112796,"componentType":5123,"count":43212,"type":"SCALAR"}],"materials":[{"pbrMetallicRoughness":{"baseColorFactor":[0,0,0,1],"metallicFactor":0},"doubleSided":true},{"pbrMetallicRoughness":{"baseColorFactor":[0.250980407,0.250980407,0.250980407,1],"metallicFactor":0},"doubleSided":true},{"pbrMetallicRoughness":{"baseColorFactor":[0.792156875,0.819607854,0.933333337,1],"metallicFactor":0},"doubleSided":true},{"pbrMetallicRoughness":{"baseColorFactor":[0.501960814,0.501960814,0.501960814,1],"metallicFactor":0},"doubleSided":true},{"pbrMetallicRoughness":{"baseColorFactor":[0.149019614,0.0705882385,0.00392156886,1],"metallicFactor":0},"doubleSided":true}],"meshes":[{"primitives":[{"attributes":{"POSITION":0,"NORMAL":1},"mode":4,"indices":2,"material":0}]},{"primitives":[{"attributes":{"POSITION":3,"NORMAL":4},"mode":4,"indices":5,"material":1}]},{"primitives":[{"attributes":{"POSITION":6,"NORMAL":7},"mode":4,"indices":8,"material":1}]},{"primitives":[{"attributes":{"POSITION":9,"NORMAL":10},"mode":4,"indices":11,"material":1}]},{"primitives":[{"attributes":{"POSITION":12,"NORMAL":13},"mode":4,"indices":14,"material":1}]},{"primitives":[{"attributes":{"POSITION":15,"NORMAL":16},"mode":4,"indices":17,"material":1}]},{"primitives":[{"attributes":{"POSITION":18,"NORMAL":19},"mode":4,"indices":20,"material":0}]},{"primitives":[{"attributes":{"POSITION":21,"NORMAL":22},"mode":4,"indices":23,"material":1}]},{"primitives":[{"attributes":{"POSITION":24,"NORMAL":25},"mode":4,"indices":26,"material":1}]},{"primitives":[{"attributes":{"POSITION":27,"NORMAL":28},"mode":4,"indices":29,"material":1}]},{"primitives":[{"attributes":{"POSITION":30,"NORMAL":31},"mode":4,"indices":32,"material":2}]},{"primitives":[{"attributes":{"POSITION":33,"NORMAL":34},"mode":4,"indices":35,"material":1}]},{"primitives":[{"attributes":{"POSITION":36,"NORMAL":37},"mode":4,"indices":38,"material":1}]},{"primitives":[{"attributes":{"POSITION":39,"NORMAL":40},"mode":4,"indices":41,"material":3}]},{"primitives":[{"attributes":{"POSITION":42,"NORMAL":43},"mode":4,"indices":44,"material":1}]},{"primitives":[{"attributes":{"POSITION":45,"NORMAL":46},"mode":4,"indices":47,"material":1}]},{"primitives":[{"attributes":{"POSITION":48,"NORMAL":49},"mode":4,"indices":50,"material":2}]},{"primitives":[{"attributes":{"POSITION":51,"NORMAL":52},"mode":4,"indices":53,"material":2}]},{"primitives":[{"attributes":{"POSITION":54,"NORMAL":55},"mode":4,"indices":56,"material":2}]},{"primitives":[{"attributes":{"POSITION":57,"NORMAL":58},"mode":4,"indices":59,"material":2}]},{"primitives":[{"attributes":{"POSITION":60,"NORMAL":61},"mode":4,"indices":62,"material":2}]},{"primitives":[{"attributes":{"POSITION":63,"NORMAL":64},"mode":4,"indices":65,"material":2}]},{"primitives":[{"attributes":{"POSITION":66,"NORMAL":67},"mode":4,"indices":68,"material":2}]},{"primitives":[{"attributes":{"POSITION":69,"NORMAL":70},"mode":4,"indices":71,"material":1}]},{"primitives":[{"attributes":{"POSITION":72,"NORMAL":73},"mode":4,"indices":74,"material":1}]},{"primitives":[{"attributes":{"POSITION":75,"NORMAL":76},"mode":4,"indices":77,"material":1}]},{"primitives":[{"attributes":{"POSITION":78,"NORMAL":79},"mode":4,"indices":80,"material":1}]},{"primitives":[{"attributes":{"POSITION":81,"NORMAL":82},"mode":4,"indices":83,"material":1}]},{"primitives":[{"attributes":{"POSITION":84,"NORMAL":85},"mode":4,"indices":86,"material":1}]},{"primitives":[{"attributes":{"POSITION":87,"NORMAL":88},"mode":4,"indices":89,"material":1}]},{"primitives":[{"attributes":{"POSITION":90,"NORMAL":91},"mode":4,"indices":92,"material":1}]},{"primitives":[{"attributes":{"POSITION":93,"NORMAL":94},"mode":4,"indices":95,"material":1}]},{"primitives":[{"attributes":{"POSITION":96,"NORMAL":97},"mode":4,"indices":98,"material":4}]},{"primitives":[{"attributes":{"POSITION":99,"NORMAL":100},"mode":4,"indices":101,"material":1}]},{"primitives":[{"attributes":{"POSITION":102,"NORMAL":103},"mode":4,"indices":104,"material":1}]}],"nodes":[{"mesh":0},{"mesh":1},{"mesh":2},{"mesh":3},{"mesh":4},{"mesh":5},{"mesh":6},{"mesh":7},{"mesh":8},{"mesh":9},{"mesh":10},{"mesh":11},{"mesh":12},{"mesh":13},{"mesh":14},{"mesh":15},{"mesh":16},{"mesh":17},{"mesh":18},{"mesh":19},{"mesh":20},{"mesh":21},{"mesh":22},{"mesh":23},{"mesh":24},{"mesh":25},{"mesh":26},{"mesh":27},{"mesh":28},{"mesh":29},{"mesh":30},{"mesh":31},{"mesh":32},{"mesh":33},{"mesh":34},{"name":"Top Part V4_Short legs","children":[0]},{"name":"ng-9512.stp","children":[1]},{"name":"ng-9512.stp","children":[2]},{"name":"ng-9512.stp","children":[3]},{"name":"ng-9512.stp","children":[4]},{"name":"ng-9512.stp","children":[5]},{"name":"Bottom Part V4_Locking mech v2","children":[6]},{"name":"43025-0200.stp","children":[7]},{"name":"ng-9512.stp","children":[8]},{"name":"43025-0200.stp","children":[9]},{"name":"stlink-v3mods.stp","children":[10]},{"name":"SH4MS12V-Step.step","children":[11]},{"name":"SH4MS12V-Step.step","children":[12]},{"name":"77_3550_0000_40003-0200.stp","children":[13]},{"name":"SH4MS12V-Step.step","children":[14]},{"name":"43025-0608.stp","children":[15]},{"name":"ts6-smt-sq_0.step","children":[16]},{"name":"ts6-smt-sq_1.step","children":[17]},{"name":"ts6-smt-sq_2.step","children":[18]},{"name":"ts6-smt-sq_3.step","children":[19]},{"name":"ts6-smt-sq_4.step","children":[20]},{"name":"ts6-smt-sq_5.step","children":[21]},{"name":"ts6-smt-sq_6.step","children":[22]},{"name":"SH4MS12V-Step.step","children":[23]},{"name":"43025-0200.stp","children":[24]},{"name":"SH4MS12V-Step.step","children":[25]},{"name":"SH4MS12V-Step.step","children":[26]},{"name":"43025-0608.stp","children":[27]},{"name":"Part1","children":[28]},{"name":"43025-0608.stp","children":[29]},{"name":"SH4MS12V-Step.step","children":[30]},{"name":"43025-1400.stp","children":[31]},{"name":"b3f-1075","children":[32]},{"name":"SH4MS12V-Step.step","children":[33]},{"name":"SH4MS12V-Step.step","children":[34]}],"scenes":[{"nodes":[35,36,37,38,39,40,41,42,43,44,45,46,47,48,49,50,51,52,53,54,55,56,57,58,59,60,61,62,63,64,65,66,67,68,69]}]}